<?xml version="1.0" encoding="UTF-8"?>
<tsduck>
  <splice_information_table protocol_version="0" pts_adjustment="0" tier="0x0FFF">
    <metadata PID="1,055" first_ts_packet="3,859" last_ts_packet="3,859"/>
    <splice_null/>
  </splice_information_table>
  <splice_information_table protocol_version="0" pts_adjustment="0" tier="0x0FFF">
    <metadata PID="1,055" first_ts_packet="7,871" last_ts_packet="7,871"/>
    <splice_null/>
  </splice_information_table>
  <splice_information_table protocol_version="0" pts_adjustment="0" tier="0x0FFF">
    <metadata PID="1,055" first_ts_packet="11,882" last_ts_packet="11,882"/>
    <splice_null/>
  </splice_information_table>
  <splice_information_table protocol_version="0" pts_adjustment="0" tier="0x0FFF">
    <metadata PID="1,055" first_ts_packet="34,269" last_ts_packet="34,269"/>
    <splice_insert splice_event_id="0x00000012" splice_event_cancel="false" out_of_network="false" splice_immediate="false" unique_program_id="0x0001" avail_num="18" avails_expected="255" pts_time="1,982,351,994"/>
    <splice_avail_descriptor identifier="0x43554549" provider_avail_id="0x00000012"/>
  </splice_information_table>
  <splice_information_table protocol_version="0" pts_adjustment="0" tier="0x0FFF">
    <metadata PID="1,055" first_ts_packet="38,282" last_ts_packet="38,282"/>
    <splice_insert splice_event_id="0x00000012" splice_event_cancel="false" out_of_network="false" splice_immediate="false" unique_program_id="0x0001" avail_num="18" avails_expected="255" pts_time="1,982,351,994"/>
    <splice_avail_descriptor identifier="0x43554549" provider_avail_id="0x00000012"/>
  </splice_information_table>
  <splice_information_table protocol_version="0" pts_adjustment="0" tier="0x0FFF">
    <metadata PID="1,055" first_ts_packet="42,295" last_ts_packet="42,295"/>
    <splice_insert splice_event_id="0x00000012" splice_event_cancel="false" out_of_network="false" splice_immediate="false" unique_program_id="0x0001" avail_num="18" avails_expected="255" pts_time="1,982,351,994"/>
    <splice_avail_descriptor identifier="0x43554549" provider_avail_id="0x00000012"/>
  </splice_information_table>
</tsduck>
